<!DOCTYPE svg PUBLIC "-//W3C//DTD SVG 1.1//EN" "http://www.w3.org/Graphics/SVG/1.1/DTD/svg11.dtd">
<!-- Uploaded to: SVG Repo, www.svgrepo.com, Transformed by: SVG Repo Mixer Tools -->
<svg version="1.1" id="Layer_1" xmlns="http://www.w3.org/2000/svg" xmlns:xlink="http://www.w3.org/1999/xlink" viewBox="0 0 392.757 392.757" xml:space="preserve" width="800px" height="800px" fill="#000000">
<g id="SVGRepo_bgCarrier" stroke-width="0"/>
<g id="SVGRepo_tracerCarrier" stroke-linecap="round" stroke-linejoin="round"/>
<g id="SVGRepo_iconCarrier"> <rect x="100.669" y="107.149" style="fill:#1a1919;" width="191.16" height="161.681"/> <path style="fill:#79d8e6;" d="M327.191,266.697l-81.196-9.956v-70.465h-99.556v70.465l0,0l-81.196,9.956 c-30.384,3.685-53.204,29.608-53.204,60.251v65.81h368.679v-65.81C380.395,296.305,357.639,270.381,327.191,266.697z"/> <polygon style="fill:#EEB490;" points="245.995,267.731 245.995,186.276 146.439,186.276 146.439,267.731 196.217,301.541 "/> <path style="fill:#FACCB4;" d="M266.423,144.644v25.665c0,39.046-32.194,70.723-71.758,69.689 c-38.012-1.034-67.879-33.293-67.879-71.24v-26.053c11.119-9.956,18.554-24.566,22.497-33.939h35.814 C202.811,119.303,234.358,136.305,266.423,144.644z"/> <path style="fill:#f0b719;" d="M299.716,90.923h-8.404c-3.168-49.002-42.731-89.6-92.444-90.893 c-52.364-1.293-95.612,39.564-98.004,90.893h-8.404c-4.719-0.259-8.663,3.685-8.663,8.663c0,5.236,3.943,9.18,8.921,9.18h206.998 c4.978,0,8.921-3.943,8.921-8.921v-0.259C308.637,94.802,304.694,90.923,299.716,90.923z"/> <g> <polygon style="fill:#F1F3F7;" points="145.922,256.741 196.217,301.541 79.078,264.886 "/> <polygon style="fill:#F1F3F7;" points="246.512,256.741 196.217,301.541 313.356,264.886 "/> <circle style="fill:#F1F3F7;" cx="228.734" cy="324.62" r="13.123"/> <circle style="fill:#F1F3F7;" cx="228.734" cy="379.634" r="13.123"/> <path style="fill:#F1F3F7;" d="M177.857,24.078v23.596c0,10.214,8.145,18.36,18.36,18.36c10.214,0,18.36-8.145,18.36-18.36V24.078 H177.857z"/> </g> </g>
</svg>