<!DOCTYPE svg PUBLIC "-//W3C//DTD SVG 1.1//EN" "http://www.w3.org/Graphics/SVG/1.1/DTD/svg11.dtd">
<!-- Uploaded to: SVG Repo, www.svgrepo.com, Transformed by: SVG Repo Mixer Tools -->
<svg height="800px" width="800px" version="1.1" id="Layer_1" xmlns="http://www.w3.org/2000/svg" xmlns:xlink="http://www.w3.org/1999/xlink" viewBox="0 0 512 512" xml:space="preserve" fill="#000000">
<g id="SVGRepo_bgCarrier" stroke-width="0"/>
<g id="SVGRepo_tracerCarrier" stroke-linecap="round" stroke-linejoin="round"/>
<g id="SVGRepo_iconCarrier"> <path style="fill:#CFDCE5;" d="M503.119,91.316V65.38c0-30.159-24.448-54.607-54.608-54.607H63.733 c-30.159,0-54.607,24.448-54.607,54.607v319.01c0,30.159,24.448,54.607,54.607,54.607h55.664h54.818h274.297 c30.159,0,54.608-24.448,54.608-54.608V123.185"/> <g> <path style="fill:#4EBFED;" d="M181.863,83.309V366.46c0,11.575-9.383,20.958-20.971,20.958H77.901 c-10.849,0-19.759-8.223-20.856-18.766c-0.077-0.714-0.115-1.454-0.115-2.193V83.309c0-11.575,9.383-20.971,20.971-20.971h82.991 c6.654,0,12.582,3.097,16.42,7.942C180.168,73.862,181.863,78.388,181.863,83.309z"/> <path style="fill:#4EBFED;" d="M271.101,190.126v18.727c0,6.693-5.431,12.123-12.123,12.123h-18.727 c-6.693,0-12.123-5.431-12.123-12.123v-18.727c0-6.693,5.431-12.123,12.123-12.123h18.727 C265.67,178.003,271.101,183.434,271.101,190.126z"/> <path style="fill:#4EBFED;" d="M271.101,273.347v18.74c0,6.693-5.431,12.111-12.123,12.111h-18.727 c-6.693,0-12.123-5.418-12.123-12.111v-18.74c0-6.693,5.431-12.123,12.123-12.123h18.727 C265.67,261.223,271.101,266.654,271.101,273.347z"/> <path style="fill:#4EBFED;" d="M271.101,356.567v18.74c0,6.693-5.431,12.111-12.123,12.111h-18.727 c-6.693,0-12.123-5.418-12.123-12.111v-18.74c0-6.693,5.431-12.123,12.123-12.123h18.727 C265.67,344.444,271.101,349.874,271.101,356.567z"/> <path style="fill:#4EBFED;" d="M363.525,356.567v18.74c0,6.693-5.431,12.111-12.123,12.111h-18.727 c-6.693,0-12.123-5.418-12.123-12.111v-18.74c0-6.693,5.431-12.123,12.123-12.123h18.727 C358.094,344.444,363.525,349.874,363.525,356.567z"/> <path style="fill:#4EBFED;" d="M363.525,273.347v18.74c0,6.693-5.431,12.111-12.123,12.111h-18.727 c-6.693,0-12.123-5.418-12.123-12.111v-18.74c0-6.693,5.431-12.123,12.123-12.123h18.727 C358.094,261.223,363.525,266.654,363.525,273.347z"/> <path style="fill:#4EBFED;" d="M363.525,190.126v18.727c0,6.693-5.431,12.123-12.123,12.123h-18.727 c-6.693,0-12.123-5.431-12.123-12.123v-18.727c0-6.693,5.431-12.123,12.123-12.123h18.727 C358.094,178.003,363.525,183.434,363.525,190.126z"/> <path style="fill:#4EBFED;" d="M455.95,190.126v18.727c0,6.693-5.431,12.123-12.123,12.123h-18.727 c-6.693,0-12.123-5.431-12.123-12.123v-18.727c0-6.693,5.431-12.123,12.123-12.123h18.727 C450.52,178.003,455.95,183.434,455.95,190.126z"/> <path style="fill:#4EBFED;" d="M455.95,273.347v18.74c0,6.693-5.431,12.111-12.123,12.111h-18.727 c-6.693,0-12.123-5.418-12.123-12.111v-18.74c0-6.693,5.431-12.123,12.123-12.123h18.727 C450.52,261.223,455.95,266.654,455.95,273.347z"/> <path style="fill:#4EBFED;" d="M455.95,356.567v18.74c0,6.693-5.431,12.111-12.123,12.111h-18.727 c-6.693,0-12.123-5.418-12.123-12.111v-18.74c0-6.693,5.431-12.123,12.123-12.123h18.727 C450.52,344.444,455.95,349.874,455.95,356.567z"/> </g> <path style="fill:#e2b928;" d="M455.95,84.202v34.484c0,12.073-9.791,21.851-21.863,21.851H249.99 c-12.073,0-21.863-9.778-21.863-21.851V84.202c0-12.073,9.791-21.863,21.863-21.863h184.097 C446.16,62.338,455.95,72.129,455.95,84.202z"/> <path d="M502.997,319.56c4.972,0,9.003-4.031,9.003-9.003V65.727c0-35.075-28.536-63.611-63.611-63.611H63.612 C28.536,2.116,0,30.652,0,65.727v319.01c0,35.075,28.536,63.611,63.612,63.611h46.66v25.124c0,20.078,16.335,36.412,36.412,36.412 c9.721,0,18.863-3.789,25.744-10.668c6.879-6.88,10.667-16.022,10.667-25.743v-25.124h265.293c35.075,0,63.611-28.536,63.611-63.611 v-42.309c0-4.972-4.031-9.003-9.003-9.003s-9.003,4.031-9.003,9.003v42.309c0,25.146-20.458,45.604-45.604,45.604h-320.11V396.77 h32.492c16.528,0,29.974-13.446,29.974-29.974V152.267c0-4.972-4.031-9.003-9.003-9.003c-4.972,0-9.003,4.031-9.003,9.003v214.527 c0,6.599-5.368,11.967-11.967,11.967H77.78c-6.599,0-11.967-5.368-11.967-11.967V83.643c0-6.592,5.368-11.954,11.967-11.954h82.991 c6.599,0,11.967,5.362,11.967,11.954v36.753c0,4.972,4.031,9.003,9.003,9.003c4.972,0,9.003-4.031,9.003-9.003V83.643 c0-16.521-13.446-29.961-29.974-29.961H77.78c-16.528,0-29.974,13.44-29.974,29.961v283.151c0,16.528,13.446,29.974,29.974,29.974 h32.492v33.572H63.612c-25.147,0-45.605-20.458-45.605-45.604V65.727c0-25.146,20.458-45.604,45.605-45.604h384.777 c25.146,0,45.604,20.458,45.604,45.604v244.83C493.993,315.531,498.024,319.56,502.997,319.56z M165.089,448.348v25.124 c0,4.911-1.916,9.532-5.394,13.011c-3.479,3.479-8.101,5.395-13.012,5.395c-10.149,0-18.405-8.257-18.405-18.405v-25.124H165.089z"/> <path d="M464.832,84.549c0-17.02-13.847-30.866-30.866-30.866H249.869c-17.02,0-30.866,13.847-30.866,30.866v34.484 c0,17.013,13.847,30.854,30.866,30.854h123.959c4.972,0,9.003-4.031,9.003-9.003c0-4.972-4.031-9.003-9.003-9.003H249.869 c-7.091,0-12.859-5.763-12.859-12.847V84.549c0-7.091,5.769-12.859,12.859-12.859h184.097c7.091,0,12.859,5.769,12.859,12.859 v34.484c0,7.084-5.769,12.847-12.859,12.847h-30.127c-4.972,0-9.003,4.031-9.003,9.003c0,4.972,4.031,9.003,9.003,9.003h30.127 c17.02,0,30.866-13.841,30.866-30.854L464.832,84.549L464.832,84.549z"/> <path d="M279.983,190.474c0-11.649-9.478-21.127-21.127-21.127h-18.727c-11.649,0-21.127,9.478-21.127,21.127v18.727 c0,11.649,9.478,21.127,21.127,21.127h18.727c11.649,0,21.127-9.478,21.127-21.127V190.474z M261.976,209.201 c0,1.72-1.4,3.12-3.12,3.12h-18.727c-1.72,0-3.12-1.4-3.12-3.12v-18.727c0-1.72,1.4-3.12,3.12-3.12h18.727 c1.72,0,3.12,1.4,3.12,3.12V209.201z"/> <path d="M464.832,190.474c0-11.649-9.478-21.127-21.127-21.127h-18.727c-11.649,0-21.127,9.478-21.127,21.127v18.727 c0,11.649,9.478,21.127,21.127,21.127h18.727c11.649,0,21.127-9.478,21.127-21.127V190.474z M446.825,209.201 c0,1.72-1.4,3.12-3.12,3.12h-18.727c-1.72,0-3.12-1.4-3.12-3.12v-18.727c0-1.72,1.4-3.12,3.12-3.12h18.727 c1.72,0,3.12,1.4,3.12,3.12V209.201z"/> <path d="M372.407,190.474c0-11.649-9.478-21.127-21.127-21.127h-18.727c-11.649,0-21.127,9.478-21.127,21.127v18.727 c0,11.649,9.478,21.127,21.127,21.127h18.727c11.649,0,21.127-9.478,21.127-21.127V190.474z M354.401,209.201 c0,1.72-1.4,3.12-3.12,3.12h-18.727c-1.72,0-3.12-1.4-3.12-3.12v-18.727c0-1.72,1.4-3.12,3.12-3.12h18.727 c1.72,0,3.12,1.4,3.12,3.12V209.201z"/> <path d="M279.983,273.694c0-11.649-9.478-21.127-21.127-21.127h-18.727c-11.649,0-21.127,9.478-21.127,21.127v18.74 c0,11.642,9.478,21.114,21.127,21.114h18.727c11.649,0,21.127-9.472,21.127-21.114V273.694z M261.976,292.434 c0,1.713-1.4,3.107-3.12,3.107h-18.727c-1.72,0-3.12-1.394-3.12-3.107v-18.74c0-1.72,1.4-3.12,3.12-3.12h18.727 c1.72,0,3.12,1.4,3.12,3.12V292.434z"/> <path d="M464.832,273.694c0-11.649-9.478-21.127-21.127-21.127h-18.727c-11.649,0-21.127,9.478-21.127,21.127v18.74 c0,11.642,9.478,21.114,21.127,21.114h18.727c11.649,0,21.127-9.472,21.127-21.114V273.694z M446.825,292.434 c0,1.713-1.4,3.107-3.12,3.107h-18.727c-1.72,0-3.12-1.394-3.12-3.107v-18.74c0-1.72,1.4-3.12,3.12-3.12h18.727 c1.72,0,3.12,1.4,3.12,3.12V292.434z"/> <path d="M372.407,273.694c0-11.649-9.478-21.127-21.127-21.127h-18.727c-11.649,0-21.127,9.478-21.127,21.127v18.74 c0,11.642,9.478,21.114,21.127,21.114h18.727c11.649,0,21.127-9.472,21.127-21.114V273.694z M354.401,292.434 c0,1.713-1.4,3.107-3.12,3.107h-18.727c-1.72,0-3.12-1.394-3.12-3.107v-18.74c0-1.72,1.4-3.12,3.12-3.12h18.727 c1.72,0,3.12,1.4,3.12,3.12V292.434z"/> <path d="M258.856,335.788h-18.727c-11.649,0-21.127,9.478-21.127,21.127v18.74c0,11.642,9.478,21.114,21.127,21.114h18.727 c11.649,0,21.127-9.472,21.127-21.114v-18.74C279.983,345.266,270.506,335.788,258.856,335.788z M261.976,375.654 c0,1.713-1.4,3.107-3.12,3.107h-18.727c-1.72,0-3.12-1.394-3.12-3.107v-18.74c0-1.72,1.4-3.12,3.12-3.12h18.727 c1.72,0,3.12,1.4,3.12,3.12V375.654z"/> <path d="M443.705,335.788h-18.727c-11.649,0-21.127,9.478-21.127,21.127v18.74c0,11.642,9.478,21.114,21.127,21.114h18.727 c11.649,0,21.127-9.472,21.127-21.114v-18.74C464.832,345.266,455.354,335.788,443.705,335.788z M446.825,375.654 c0,1.713-1.4,3.107-3.12,3.107h-18.727c-1.72,0-3.12-1.394-3.12-3.107v-18.74c0-1.72,1.4-3.12,3.12-3.12h18.727 c1.72,0,3.12,1.4,3.12,3.12V375.654z"/> <path d="M351.281,335.788h-18.727c-11.649,0-21.127,9.478-21.127,21.127v18.74c0,11.642,9.478,21.114,21.127,21.114h18.727 c11.649,0,21.127-9.472,21.127-21.114v-18.74C372.407,345.266,362.93,335.788,351.281,335.788z M354.401,375.654 c0,1.713-1.4,3.107-3.12,3.107h-18.727c-1.72,0-3.12-1.394-3.12-3.107v-18.74c0-1.72,1.4-3.12,3.12-3.12h18.727 c1.72,0,3.12,1.4,3.12,3.12V375.654z"/> </g>
</svg>